<?xml version="1.0" encoding="UTF-8" standalone="no"?>
<!DOCTYPE svg PUBLIC "-//W3C//DTD SVG 1.0//EN" "http://www.w3.org/TR/2001/REC-SVG-20010904/DTD/svg10.dtd">
<!-- Created with Inkscape (http://www.inkscape.org/) by Steadfast-->
<svg
   xmlns:svg="http://www.w3.org/2000/svg"
   xmlns="http://www.w3.org/2000/svg"
   version="1.0"
   width="500"
   height="500"
   id="svg4388">
  <defs
     id="defs4390" />
  <g
     id="layer1">
    <g
       transform="matrix(19.783612,0,0,19.783612,-7098.1987,-4912.2094)"
       id="g4399">
      <path
         d="M 374.56194,256.60893 L 374.56194,264.10968 L 368.27432,264.10968 L 368.25807,256.60893 L 360.80394,256.60893 L 360.80394,250.31768 L 382.05394,250.31768 L 382.05394,256.60893 L 374.56194,256.60893 z M 360.79044,264.10405 L 360.79619,257.80155 L 367.08194,257.80155 L 367.08194,265.28393 L 375.76982,265.28393 L 375.76982,257.80155 L 382.04569,257.80155 L 382.04569,264.09905 C 382.05107,268.3893 378.49219,271.5538 374.56407,271.5588 L 368.26657,271.5588 C 364.43544,271.19593 360.78019,268.3198 360.79044,264.10405 z M 359.62444,249.12968 L 383.23269,249.12968 L 383.23269,264.10293 C 383.23269,268.26068 379.91332,272.73768 374.56082,272.73768 L 368.26894,272.73768 C 363.49869,272.73768 359.61869,268.82093 359.62444,264.10293 L 359.62444,249.12968 z M 359.29732,248.80255 L 383.55982,248.80255 L 383.55982,264.1908 C 383.55982,268.4633 380.14832,273.06468 374.64769,273.06468 L 368.18144,273.06468 C 363.27894,273.06468 359.29169,269.03918 359.29732,264.1908 L 359.29732,248.80255 z"
         id="path87"
         style="fill:#231f20;fill-opacity:1;fill-rule:evenodd;stroke:none" />
    </g>
  </g>
</svg>
